<?xml version="1.0" encoding="UTF-8" standalone="no"?>
<svg
   xmlns:dc="http://purl.org/dc/elements/1.1/"
   xmlns:cc="http://creativecommons.org/ns#"
   xmlns:rdf="http://www.w3.org/1999/02/22-rdf-syntax-ns#"
   xmlns:svg="http://www.w3.org/2000/svg"
   xmlns="http://www.w3.org/2000/svg"
   version="1.1"
   id="Capa_1"
   x="0px"
   y="0px"
   width="200"
   height="200"
   viewBox="0 0 200 200"
   xml:space="preserve"><metadata
     id="metadata854"><rdf:RDF><cc:Work
         rdf:about=""><dc:format>image/svg+xml</dc:format><dc:type
           rdf:resource="http://purl.org/dc/dcmitype/StillImage" /><dc:title></dc:title></cc:Work></rdf:RDF></metadata><defs
     id="defs852"><clipPath
       id="clipPath843"
       clipPathUnits="userSpaceOnUse"><rect
         y="19.186495"
         x="20.374229"
         height="141.91766"
         width="141.91766"
         id="rect845"
         style="fill:#0000ff;fill-rule:evenodd;stroke-width:1.45249069" /></clipPath></defs><rect
     y="0"
     x="0"
     height="200"
     width="200"
     id="rect847"
     style="fill:#232b33;fill-rule:evenodd;stroke-width:0.91404611;fill-opacity:1" /><g
     clip-path="url(#clipPath843)"
     id="g817"
     style="fill:#6e6b6b;fill-opacity:0.11224489"
     transform="matrix(1.4092678,0,0,1.4092678,-28.712742,-27.038908)"><path
       d="m 183.455,50.228 c -0.119,-0.121 -0.256,-0.227 -0.376,-0.346 -0.144,-2.28 -0.375,-4.543 -0.658,-6.796 1.008,-0.688 1.313,-2.464 0.451,-3.487 -0.367,-0.435 -0.771,-0.846 -1.168,-1.262 -1.366,-7.702 -3.708,-15.173 -7.544,-22.213 2.76,-1.833 2.644,-7.145 -1.241,-8.141 C 138.165,-0.923 100.828,10.05 65.305,4.627 53.704,2.855 20.385,-6.396 14.081,7.65 12.219,7.163 9.945,8.157 9.854,10.702 8.679,43.797 8.56,76.914 6.991,110.002 c -0.876,18.487 -8.729,45.77 3.792,61.646 1.303,1.654 3.034,1.316 4.247,0.218 12.971,13.903 43.069,14.479 60.049,14.98 0.092,0.104 0.189,0.202 0.28,0.308 1.237,1.404 2.869,0.905 3.766,-0.234 28.932,0.633 58.04,-3.325 86.529,-7.989 0.212,0.19 0.415,0.396 0.627,0.585 3.132,2.797 6.948,-1.319 4.49,-4.49 -0.118,-0.152 -0.247,-0.301 -0.366,-0.453 1.259,-0.625 2.286,-1.834 2.502,-3.708 3.238,-28.057 6.058,-56.372 8.754,-84.508 1.006,-10.504 1.917,-21.269 1.629,-31.849 1.046,-1.127 1.434,-2.999 0.165,-4.28 z M 169.584,16.651 c 1.079,4.529 1.852,9.141 2.434,13.797 -1.989,-1.426 -3.962,-2.844 -5.769,-4.338 -3.948,-3.266 -7.75,-6.711 -11.762,-9.896 5.043,0.008 10.08,0.099 15.097,0.437 z m -20.132,-0.403 c 0.074,0.149 0.156,0.296 0.291,0.426 4.911,4.728 10.032,9.246 15.011,13.904 2.57,2.404 5.204,5.118 8.036,7.518 0.083,1.045 0.183,2.087 0.248,3.136 -3.803,-2.966 -7.686,-5.848 -11.322,-8.904 -5.9,-4.96 -11.297,-10.3 -16.327,-16.053 1.355,-0.03 2.708,-0.01 4.063,-0.027 z M 15.946,164.688 c -0.849,-6.355 -1.179,-12.633 -1.251,-18.891 7.963,10.244 17.076,20.935 27.823,27.828 -9.218,-2.051 -17.567,-6.751 -26.572,-8.937 z m 35.895,10.501 c -0.084,-0.283 -0.232,-0.562 -0.541,-0.813 -6.92,-5.607 -14.297,-10.392 -20.845,-16.507 -5.683,-5.309 -10.832,-11.182 -15.784,-17.187 0.055,-4.753 0.265,-9.509 0.511,-14.276 16.138,17.39 33.989,33.091 50.437,50.227 -4.606,-0.343 -9.204,-0.793 -13.778,-1.444 z m 35.003,2.032 c -4.449,0.097 -8.897,0.021 -13.341,-0.146 C 55.966,157.574 35.986,139.239 15.34,123.28 c 0.328,-5.87 0.688,-11.791 0.969,-17.781 3.91,11.804 17.197,23.038 24.998,30.696 14.926,14.652 31.23,27.915 47.564,40.956 -0.676,0.019 -1.351,0.055 -2.027,0.07 z m 7.311,-0.247 c 0.736,-1.019 0.847,-2.361 -0.446,-3.366 -27.488,-21.325 -58.583,-43.3 -76.364,-73.782 -0.178,-0.305 -0.48,-0.427 -0.796,-0.473 0.189,-4.991 0.293,-9.993 0.412,-14.992 24.614,31.673 50.98,70.942 85.949,92.091 -2.919,0.175 -5.831,0.405 -8.755,0.522 z m 18.514,-1.137 c -36.659,-27.825 -66.27,-60.093 -95.6,-95.425 0.117,-5.767 0.189,-11.537 0.22,-17.307 37.83,34.935 68.273,78.158 107.231,111.627 -3.946,0.408 -7.895,0.785 -11.851,1.105 z m 19.54,-1.981 C 95.508,134.756 58.506,93.318 17.284,58.956 c 0.011,-5.561 -0.06,-11.122 -0.12,-16.682 45.743,40.96 85.817,86.666 129.226,129.746 -4.723,0.657 -9.448,1.281 -14.181,1.836 z m 21.988,-2.991 c -5.305,-6.597 -10.81,-13.124 -16.459,-19.589 6.16,6.588 12.425,13.032 18.867,19.22 -0.804,0.12 -1.606,0.248 -2.408,0.369 z m 9.757,-4.287 C 138.883,135.919 109.255,107.855 82.135,79.292 66.274,62.586 50.527,45.699 34.076,29.567 31.808,27.343 22.032,14.627 17.72,16.676 c -0.368,0.175 -0.282,0.672 0,0.867 6.415,4.446 13.052,15.337 18.541,21.249 15.725,16.938 31.266,34.053 46.842,51.126 12.47,13.669 24.72,28.032 37.225,42.177 C 88.46,98.208 52.81,66.564 17.425,38.48 17.332,38.406 17.233,38.379 17.136,38.33 17.009,29.113 16.81,19.9 16.486,10.703 16.479,10.508 16.4,10.368 16.368,10.191 20.355,9.63 24.46,9.503 28.61,9.581 c 17.813,24.72 38.444,47.53 59.428,69.556 22.999,24.143 46.279,50.161 72.062,71.321 1.487,1.221 3.144,0.83 4.07,-0.214 -0.337,5.479 -0.48,10.935 -0.216,16.334 z m 7.439,-74.565 c -0.988,10.312 -2.683,20.873 -4.222,31.492 C 128.805,86.221 92.871,41.448 47.594,12.554 c -1.75,-1.117 -3.137,1.518 -1.582,2.707 44.257,33.82 75.357,81.453 119.339,115.05 0.27,0.206 0.545,0.297 0.818,0.389 -0.721,5.391 -1.36,10.786 -1.785,16.163 -0.09,-0.146 -0.131,-0.295 -0.248,-0.438 C 144.263,122.38 119.116,101.864 96.916,79.952 74.212,57.541 52.877,34.233 32.544,9.714 c 13.824,0.779 28.116,4.043 41.269,6.005 10.686,17.886 25.375,32.609 40.761,46.735 16.228,14.897 33.017,32.429 51.031,45.002 2.156,1.505 4.97,-1.437 3.574,-3.574 C 158.34,87.275 137.785,74.886 122.695,62.313 106.26,48.622 90.092,33.956 77.964,16.267 c 4.133,0.507 8.285,0.818 12.449,1.027 0.018,0.368 0.187,0.715 0.606,0.895 19.018,8.144 34.447,23.127 49.203,37.244 9.647,9.231 19.731,23.779 31.678,30.946 -0.169,1.879 -0.329,3.771 -0.507,5.634 z M 172.628,77.25 C 163.153,66.798 150.841,57.448 140.849,48.391 127.617,36.399 113.008,23.987 96.121,17.459 c 7.866,0.19 15.774,-0.009 23.693,-0.295 9.881,8.862 19.645,17.859 29.43,26.828 7.353,6.74 15.194,16.088 24.031,21.49 -0.159,3.939 -0.367,7.869 -0.647,11.768 z M 153.139,40.099 C 143.975,32.29 134.792,24.523 125.432,16.96 c 4.982,-0.2 9.967,-0.388 14.948,-0.545 8.812,12.465 20.876,23.966 33.029,33.588 0.041,2.152 0.104,4.303 0.086,6.458 -6.408,-5.859 -14.07,-11.005 -20.356,-16.362 z"
       id="path815"
       style="fill:#6e6b6b;fill-opacity:0.11224489" /></g><g
     id="g819"
     transform="translate(0,11.988998)" /><g
     id="g821"
     transform="translate(0,11.988998)" /><g
     id="g823"
     transform="translate(0,11.988998)" /><g
     id="g825"
     transform="translate(0,11.988998)" /><g
     id="g827"
     transform="translate(0,11.988998)" /><g
     id="g829"
     transform="translate(0,11.988998)" /><g
     id="g831"
     transform="translate(0,11.988998)" /><g
     id="g833"
     transform="translate(0,11.988998)" /><g
     id="g835"
     transform="translate(0,11.988998)" /><g
     id="g837"
     transform="translate(0,11.988998)" /><g
     id="g839"
     transform="translate(0,11.988998)" /><g
     id="g841"
     transform="translate(0,11.988998)" /><g
     id="g843"
     transform="translate(0,11.988998)" /><g
     id="g845"
     transform="translate(0,11.988998)" /><g
     id="g847"
     transform="translate(0,11.988998)" /></svg>