<?xml version="1.0" encoding="UTF-8" standalone="no"?>
<svg
   xmlns:dc="http://purl.org/dc/elements/1.1/"
   xmlns:cc="http://creativecommons.org/ns#"
   xmlns:rdf="http://www.w3.org/1999/02/22-rdf-syntax-ns#"
   xmlns:svg="http://www.w3.org/2000/svg"
   xmlns="http://www.w3.org/2000/svg"
   width="79.375mm"
   height="79.375mm"
   viewBox="0 0 79.375 79.375"
   version="1.1"
   id="svg8">
  <defs
     id="defs2" />
  <metadata
     id="metadata5">
    <rdf:RDF>
      <cc:Work
         rdf:about="">
        <dc:format>image/svg+xml</dc:format>
        <dc:type
           rdf:resource="http://purl.org/dc/dcmitype/StillImage" />
        <dc:title></dc:title>
      </cc:Work>
    </rdf:RDF>
  </metadata>
  <g
     id="layer1"
     transform="translate(-7.8103781,-14.741618)">
    <rect
       style="fill:#314c4c;fill-opacity:1;fill-rule:evenodd;stroke-width:0.26458332"
       id="rect819"
       width="79.375"
       height="79.375"
       x="7.8103781"
       y="14.741618" />
    <path
       style="opacity:0.50499998;fill:#a3a3a4;fill-opacity:0.1356784;stroke:#3e3d3c;stroke-width:0.02197661;stroke-miterlimit:4;stroke-dasharray:none;stroke-opacity:0.63137255"
       id="path4560"
       d="m 27.840667,39.784323 c 0.655336,-0.171948 -0.06287,0.04866 0.643341,-0.290258 0.173092,-0.08306 0.362645,-0.128082 0.536527,-0.209478 0.197536,-0.09247 1.116932,-0.607882 1.259224,-0.712945 0.221565,-0.163599 0.40955,-0.36837 0.614321,-0.552552 0.250446,-0.170005 0.517313,-0.318031 0.751347,-0.510004 0.238826,-0.195915 0.439194,-0.434544 0.66154,-0.648988 0.220678,-0.212776 0.442702,-0.424194 0.667439,-0.632662 0.629605,-0.584001 1.255661,-1.171643 1.895608,-1.744298 0.393975,-0.2733 0.665976,-0.675222 1.022251,-0.987535 0.149701,-0.13125 0.325948,-0.229237 0.480733,-0.354454 0.352894,-0.285485 0.674574,-0.590307 1.042318,-0.859076 0.353542,-0.140116 0.576038,-0.454446 0.879817,-0.664313 0.230803,-0.15945 0.383287,-0.185444 0.597759,-0.364809 0.08247,-0.06895 0.146761,-0.157017 0.220096,-0.235568 0.08298,-0.06933 0.165284,-0.139463 0.248927,-0.207984 0.353549,-0.289618 0.164426,-0.11291 0.480625,-0.425647 0.131269,-0.129845 0.235196,-0.29403 0.392256,-0.391098 0.05823,-0.03599 0.132442,-0.03469 0.198658,-0.05203 1.732765,-0.931654 0.148463,-0.114289 4.04901,3.940281 0.02051,0.02119 0.03979,0.348961 0.0358,0.38945 -0.01462,0.148935 -0.08048,0.267706 -0.139908,0.400985 -0.111892,0.425615 -0.275689,0.865376 -0.518486,1.235548 -0.02725,0.07508 -0.05448,0.150148 -0.08174,0.225222 -0.03572,0.06396 -0.08198,0.123088 -0.10714,0.191891 -0.132906,0.363519 0.03887,0.11616 -0.12941,0.441688 -0.179037,0.346338 -0.06495,-0.03841 -0.15916,0.382051 -0.0255,0.0622 -0.04485,0.127292 -0.0765,0.186653 -0.02924,0.05504 -0.07757,0.09877 -0.105133,0.154683 -0.315533,0.639966 0.186189,-0.230025 -0.201515,0.518714 -0.328939,0.635249 -0.01894,-0.154488 -0.28417,0.588541 -0.04044,0.114901 -0.06454,0.236921 -0.121269,0.344709 -0.05324,0.101245 -0.140739,0.180622 -0.205019,0.27527 -0.129194,0.190243 -0.2572,0.440965 -0.397913,0.622471 -0.750608,0.968233 0.225676,-0.417361 -0.48389,0.612 -0.446604,0.652011 -1.001835,1.213447 -1.430057,1.878463 -0.434402,0.423424 -0.80694,0.920056 -1.153854,1.417978 -0.09655,0.138588 -0.172177,0.291445 -0.273636,0.426485 -0.102068,0.135847 -0.223519,0.255979 -0.335269,0.383967 -0.185226,0.301326 -0.431411,0.55681 -0.637736,0.842161 -0.10616,0.146828 -0.189013,0.310126 -0.300623,0.452853 -0.110239,0.14098 -0.258536,0.250294 -0.362903,0.395679 -0.339164,0.615783 -0.150216,0.329656 -0.560962,0.862216 -0.385745,0.433758 -0.575432,1.004571 -0.959124,1.440868 -0.756156,0.859816 0.166155,-0.360859 -0.505777,0.560369 -0.147483,0.370901 -0.431586,0.648963 -0.659091,0.96873 -0.07442,0.104616 -0.136511,0.218298 -0.217454,0.317986 -0.160026,0.197109 -0.344604,0.373355 -0.505569,0.569699 -0.288215,0.250162 -0.399948,0.633826 -0.627876,0.925463 -0.06927,0.08863 -0.17575,0.144341 -0.241751,0.235434 -0.56734,0.78243 0.280997,-0.144727 -0.357678,0.51908 -0.0471,0.08886 -0.07957,0.187159 -0.141312,0.26657 -0.05457,0.07024 -0.144185,0.106859 -0.201621,0.174766 -0.05897,0.06971 -0.08717,0.161484 -0.14358,0.23328 -0.05275,0.06714 -0.126694,0.1153 -0.181731,0.180584 -0.494762,0.588328 0.188068,-0.133383 -0.33349,0.403161 -0.335443,0.374087 -0.56255,0.826954 -0.881388,1.21329 -0.0775,0.157114 -0.238643,0.245941 -0.335285,0.386458 -0.04826,0.07016 -0.06644,0.157711 -0.112356,0.229428 -0.04128,0.06446 -0.103474,0.113381 -0.14726,0.176142 -0.07492,0.107375 -0.130331,0.227078 -0.196506,0.340028 -0.815952,1.707982 -0.132808,0.334233 -3.7804,-3.896219 -0.05407,-0.06267 0.134693,-0.09622 0.200519,-0.146381 0.08798,-0.06703 0.176306,-0.133758 0.260821,-0.205105 0.228743,-0.193096 0.449793,-0.395164 0.678229,-0.588624 0.136294,-0.116395 0.290132,-0.214952 0.40891,-0.349183 0.127365,-0.143953 0.195194,-0.334081 0.322866,-0.477766 0.09584,-0.107869 0.734502,-0.61572 0.850996,-0.724435 0.200958,-0.187543 0.496789,-0.530336 0.680911,-0.737871 0.255272,-0.315003 0.578263,-0.573336 0.846851,-0.874173 0.07734,-0.0866 0.130805,-0.192501 0.207253,-0.279859 0.148224,-0.169372 0.321473,-0.315165 0.477968,-0.476922 0.10302,-0.06515 0.225703,-0.106509 0.309055,-0.195445 0.09075,-0.09683 0.107373,-0.248411 0.197885,-0.345465 0.09147,-0.09801 0.231533,-0.137709 0.333681,-0.224542 0.10612,-0.0902 0.187687,-0.206047 0.287342,-0.303343 0.205602,-0.200679 0.426263,-0.385332 0.639248,-0.578158 0.375113,-0.295023 0.729493,-0.605679 1.127573,-0.870305 0.130498,-0.08675 0.271178,-0.158451 0.396576,-0.252412 1.177185,-0.882045 -0.512829,0.27215 0.685355,-0.529807 0.08775,-0.0922 0.175516,-0.184396 0.263312,-0.276553 0.101614,-0.06805 0.216789,-0.119265 0.304851,-0.204129 0.08497,-0.08191 0.1225,-0.204542 0.205885,-0.288067 0.08239,-0.08248 0.196247,-0.127299 0.284666,-0.203316 1.66e-4,-1.42e-4 0.457236,-0.471948 0.466298,-0.481319 1.055534,-0.874802 -0.498633,0.425917 0.498625,-0.449817 0.08806,-0.07737 0.192976,-0.135116 0.276253,-0.217619 0.08587,-0.085 0.135706,-0.203766 0.227904,-0.281865 0.10719,-0.09079 0.242738,-0.141598 0.361183,-0.217123 0.122399,-0.07805 0.240737,-0.162292 0.3611,-0.243441 0.386792,-0.219594 0.730258,-0.593314 1.087878,-0.839904 0.136004,-0.09377 0.294104,-0.151699 0.4328,-0.24144 0.30014,-0.194201 0.415421,-0.322875 0.671765,-0.562996 0.260439,-0.09835 0.412722,-0.338753 0.633009,-0.488954 0.103125,-0.07031 0.232937,-0.09645 0.333218,-0.17076 0.09129,-0.06766 0.152467,-0.168665 0.233002,-0.248821 0.322701,-0.299042 0.167136,-0.148692 0.467311,-0.450407 0.09722,-0.05843 0.199049,-0.109782 0.291637,-0.175301 0.08758,-0.06197 0.160964,-0.142291 0.247256,-0.206041 0.396534,-0.292976 0.827339,-0.523403 1.210567,-0.833965 0.31928,-0.304052 0.72,-0.495612 1.076932,-0.744847 0.121867,-0.08511 0.229538,-0.189066 0.348332,-0.27841 0.817033,-0.614537 -0.04485,0.0781 0.70813,-0.538239 0.213535,-0.219137 0.332429,-0.365522 0.589394,-0.534632 0.103739,-0.06828 0.229267,-0.100652 0.329305,-0.174243 0.09134,-0.06719 0.154992,-0.165813 0.237997,-0.24307 0.197186,-0.183556 0.275014,-0.226369 0.494588,-0.37937 0.07741,-0.05748 0.1548,-0.114966 0.232205,-0.172454 0.05415,-0.07035 0.09473,-0.153651 0.162468,-0.211053 0.06894,-0.05844 0.359788,-0.166947 0.434085,-0.227332 0.05399,-0.04387 0.205952,-0.276891 0.245331,-0.335019 0.297733,-0.05202 0.357312,-0.324318 0.56048,-0.49043 0.29206,-0.238787 0.02126,0.04236 0.271261,-0.237161 0.03895,-0.04015 0.166754,-0.18819 0.23783,-0.20829 0.03206,-0.0091 0.07425,-0.0037 0.09781,0.01985 1.297201,1.291496 2.606022,2.572845 3.852696,3.91319 0.146246,0.157252 -0.07193,0.327617 -0.142999,0.40882 -0.135423,0.150771 -0.158347,0.360544 -0.261975,0.52718 -0.05897,0.09479 -0.153505,0.163628 -0.214837,0.256891 -0.06769,0.102977 -0.111219,0.219972 -0.16986,0.328352 -0.200128,0.369851 -0.136021,0.258981 -0.397814,0.592392 -0.29231,0.679775 -0.826351,1.198907 -1.240379,1.798497 -0.130921,0.311803 -0.425887,0.455464 -0.607194,0.733043 -0.06719,0.102893 -0.102143,0.225305 -0.173829,0.325122 -0.07468,0.103981 -0.174413,0.187452 -0.261618,0.281171 -0.07916,0.118016 -0.158299,0.236032 -0.237439,0.354047 -0.0877,0.124455 -0.166862,0.255389 -0.263089,0.373374 -0.09594,0.117632 -0.216989,0.213319 -0.311986,0.331705 -0.397805,0.495804 -0.666077,1.08359 -1.010223,1.61434 -0.235695,0.218149 -0.306729,0.549213 -0.50503,0.791244 -0.09708,0.118495 -0.247349,0.186166 -0.343109,0.305735 -0.09744,0.121644 -0.142483,0.277967 -0.228485,0.407956 -0.162459,0.245575 -0.35816,0.467557 -0.530553,0.706262 -0.809474,1.188353 0.331456,-0.450019 -0.546137,0.691491 -0.09529,0.123938 -0.160516,0.269156 -0.255786,0.393098 -0.08819,0.114715 -0.208858,0.202627 -0.292766,0.320513 -0.08319,0.116882 -0.129468,0.256454 -0.204829,0.378531 -0.07027,0.11386 -0.154262,0.218694 -0.231384,0.328037 -0.468606,0.456476 -0.713396,1.084957 -1.15353,1.561507 -0.0397,0.09723 -0.0554,0.208155 -0.119001,0.29168 -0.06179,0.0811 -0.173938,0.1104 -0.243867,0.184589 -0.07367,0.07812 -0.110705,0.185279 -0.181125,0.266311 -0.07185,0.08265 -0.166055,0.143206 -0.242687,0.22143 -0.228211,0.232956 -0.268563,0.311627 -0.460201,0.579309 -0.110397,0.253919 -0.419759,0.269452 -0.585191,0.452217 -0.08907,0.09843 -0.106519,0.245106 -0.182361,0.354064 -0.07234,0.103918 -0.174745,0.183401 -0.258114,0.278704 -0.119266,0.136403 -0.397713,0.485531 -0.510435,0.62565 -0.229457,0.394479 -0.569143,0.690481 -0.877642,1.016407 -0.112465,0.118824 -0.210311,0.250871 -0.321938,0.370474 -0.453132,0.45174 -0.234489,0.222208 -0.656548,0.68799 -0.261684,0.353102 -0.603996,0.627416 -0.912535,0.933529 -0.269568,0.267505 -0.488931,0.58276 -0.747859,0.860859 -0.06928,0.09137 -0.138521,0.182739 -0.207786,0.274105 -0.07418,0.07095 -0.158962,0.132255 -0.222663,0.212758 -0.05922,0.07485 -0.08406,0.172861 -0.142332,0.24846 -0.05067,0.06574 -0.127043,0.107936 -0.180949,0.171049 -0.618708,0.724136 0.32373,-0.279877 -0.309337,0.382075 -0.395654,0.370694 -0.770551,0.788587 -1.041555,1.259298 -0.06073,0.07947 -0.121435,0.158904 -0.18207,0.238417 -0.06711,0.08803 -0.12695,0.182116 -0.2012,0.264226 -0.09033,0.09992 -0.452259,0.404123 -0.522646,0.509903 -0.767542,1.153383 0.443049,-0.320447 -0.476405,0.749103 -0.101466,0.123219 -0.20993,0.240992 -0.304428,0.369628 -0.562125,0.765184 0.01079,0.09284 -0.579908,0.820248 -0.303423,0.373652 -0.632852,0.718914 -0.928343,1.099609 -0.138721,0.437156 -0.53753,0.699589 -0.77585,1.065863 -0.07632,0.117366 -0.09869,0.265074 -0.177892,0.380545 -0.32746,0.319841 -0.187918,0.14756 -0.424625,0.5119 -0.38126,0.377943 -0.703628,0.808623 -1.080237,1.19032 -1.129566,1.714591 -0.972995,-0.379476 -3.896941,-3.765884 -0.05366,-0.06218 0.131353,-0.09877 0.194878,-0.150876 0.239872,-0.196727 0.304776,-0.264947 0.541534,-0.485696 0.121975,-0.09937 0.249799,-0.191976 0.365926,-0.298122 0.458232,-0.418801 0.275208,-0.335534 0.765019,-0.756506 0.153962,-0.132324 0.324703,-0.243918 0.482478,-0.371672 0.465674,-0.377071 0.485311,-0.414009 0.915118,-0.828775 0.169803,-0.125625 0.339596,-0.251258 0.509398,-0.376885 0.16721,-0.146407 0.323872,-0.305816 0.501624,-0.439231 0.171106,-0.128417 0.374547,-0.21063 0.541891,-0.343919 0.150016,-0.119487 0.259176,-0.283949 0.404126,-0.409539 0.953202,-0.826153 -0.03888,0.182047 0.743041,-0.644518 0.85136,-0.527671 -0.09025,0.106006 0.553994,-0.468303 0.07276,-0.06484 0.177701,-0.08719 0.248378,-0.154322 0.06138,-0.05841 0.08615,-0.146564 0.138512,-0.213204 0.134078,-0.170672 0.168805,-0.168456 0.353525,-0.279978 0.115912,-0.125442 0.270058,-0.209993 0.387739,-0.333258 0.06703,-0.07022 0.107439,-0.1644 0.179919,-0.228963 0.08407,-0.07492 0.196937,-0.111724 0.283446,-0.183816 0.09639,-0.08032 0.170441,-0.184453 0.261751,-0.270508 0.101836,-0.09603 0.211465,-0.183464 0.317219,-0.275178 0.514739,-0.406648 0.934164,-0.919891 1.457832,-1.314558 0.830172,-0.625725 0.07392,0.03758 0.837299,-0.667452 1.083292,-0.825101 -0.220719,0.141545 0.9744,-0.656125 0.180932,-0.12076 0.347229,-0.262278 0.525287,-0.387234 0.183349,-0.128669 0.383876,-0.233338 0.558636,-0.37345 1.540745,-1.235295 -0.609876,0.282645 1.123844,-0.902144 0.230412,-0.136449 0.468623,-0.260499 0.691219,-0.409353 0.221607,-0.148197 0.423221,-0.324435 0.639388,-0.480463 0.695348,-0.501909 1.41107,-0.98815 2.05604,-1.556716 0.205087,-0.180802 0.390014,-0.383272 0.585017,-0.574906 0.184562,-0.16684 0.366192,-0.336977 0.553677,-0.500527 0.161497,-0.140897 0.337113,-0.265642 0.493069,-0.412649 0.428396,-0.403812 0.765043,-0.860546 1.24993,-1.202906 0.271411,-0.320902 0.657106,-0.481986 0.989766,-0.722509 0.624645,-0.451638 -0.09245,0.02504 0.604071,-0.425463 0.59824,-0.481582 1.232728,-0.912285 1.808035,-1.422401 0.836119,-0.72377 -0.390462,0.292956 0.555007,-0.338381 0.08681,-0.05798 0.13931,-0.156135 0.217371,-0.225437 0.265164,-0.235329 0.594354,-0.406252 0.88505,-0.607338 0.09835,-0.08125 0.19669,-0.162498 0.295034,-0.243746 0.10994,-0.07724 0.22557,-0.146972 0.329812,-0.231756 0.109292,-0.08891 0.197644,-0.202132 0.309287,-0.288081 0.115688,-0.08907 0.256576,-0.142569 0.369788,-0.234764 0.759877,-0.618771 -0.202304,-0.02065 0.662679,-0.51694 0.325873,-0.341399 0.631232,-0.736464 1.008005,-1.026923 0.548006,-0.422445 0.07692,0.06593 0.531086,-0.453473 0.287608,-0.220208 0.614703,-0.403683 0.894071,-0.633881 0.09942,-0.08192 0.175691,-0.189276 0.273961,-0.27256 0.268877,-0.227915 0.405306,-0.282441 0.714294,-0.452591 0.622667,-0.580021 -0.04187,-0.007 0.669888,-0.483411 0.319553,-0.213908 0.247997,-0.238139 0.536136,-0.464641 0.55631,-0.437322 -0.01869,0.0981 0.442941,-0.350395 0.247123,-0.06394 0.273104,-0.353542 0.438886,-0.492216 0.05839,-0.04883 0.146445,-0.05026 0.207039,-0.09633 0.05764,-0.04382 0.08774,-0.115792 0.139118,-0.166801 0.05565,-0.05526 0.120456,-0.100473 0.180676,-0.150714 0.110122,-0.154529 0.313273,-0.171441 0.449103,-0.285552 0.06504,-0.05468 0.09517,-0.142269 0.155748,-0.201875 0.175309,-0.172342 0.413728,-0.320139 0.612943,-0.464566 1.547736,-1.389179 -2.576111,-3.557276 4.067508,3.855279 0.04427,0.04944 -0.09495,0.09471 -0.12872,0.151812 -0.126935,0.214566 -0.208684,0.452825 -0.312792,0.679347 -0.08456,0.138481 -0.176697,0.272605 -0.253661,0.415444 -0.08746,0.16233 -0.146303,0.339474 -0.238959,0.498899 -0.188832,0.324933 -0.432591,0.614814 -0.639314,0.928673 -0.279409,0.424228 -0.287085,0.454799 -0.531425,0.888091 -0.410697,0.676805 -0.92502,1.27248 -1.329603,1.952182 -0.308789,0.37535 -0.673361,0.695307 -0.961641,1.088702 -0.113329,0.154645 -0.19929,0.328369 -0.314927,0.481293 -1.074082,1.420384 0.302933,-0.577469 -0.747435,0.981259 -1.380793,1.684546 0.562907,-0.699818 -0.782611,0.993712 -0.122457,0.154126 -0.261386,0.29503 -0.379041,0.452837 -0.114883,0.154081 -0.201549,0.328007 -0.317469,0.481303 -1.108693,1.466188 0.387049,-0.666166 -0.643973,0.827484 -0.173774,0.274601 -0.421495,0.490786 -0.611921,0.751841 -0.09728,0.133368 -0.160915,0.290118 -0.264301,0.41881 -0.09819,0.122209 -0.233019,0.210821 -0.33629,0.328766 -0.190276,0.217267 -0.349147,0.460306 -0.531832,0.684 -0.29054,0.237543 -0.492205,0.508437 -0.64085,0.849737 -0.04386,0.10061 -0.05964,0.214949 -0.120083,0.30653 -0.05432,0.08224 -0.146852,0.131667 -0.215734,0.202146 -0.07001,0.07173 -0.133804,0.149317 -0.20071,0.223973 -0.0569,0.08919 -0.117074,0.1764 -0.170782,0.267562 -0.05282,0.08967 -0.0887,0.189508 -0.148612,0.274614 -0.18257,0.259308 -0.451389,0.449785 -0.631358,0.71398 -0.06994,0.102745 -0.122174,0.21653 -0.183257,0.324799 -0.09092,0.09289 -0.179902,0.187722 -0.273048,0.278374 -0.096,0.09351 -0.205958,0.173127 -0.294277,0.273916 -0.08973,0.102418 -0.154054,0.224725 -0.237173,0.332578 -0.0814,0.105588 -0.176605,0.200153 -0.255938,0.307279 -0.612085,0.826662 0.211234,-0.183568 -0.448164,0.606956 -0.155457,0.322148 -0.407374,0.575937 -0.61815,0.860108 -0.167535,0.225869 -0.235844,0.364534 -0.448083,0.557641 -0.09426,0.08578 -0.204173,0.152607 -0.306262,0.228914 -0.153996,0.223419 -0.290822,0.458925 -0.514573,0.625425 -0.122383,0.09105 -0.289718,0.113613 -0.404401,0.214195 -0.116044,0.101773 -0.176654,0.253233 -0.269301,0.376686 -0.336447,0.448351 -0.207253,0.300328 -0.65164,0.64756 -0.560397,0.679179 -1.237396,1.246374 -1.86131,1.864808 -0.103781,0.09727 -0.212038,0.189993 -0.311347,0.291831 -0.27622,0.28329 -0.242164,0.297181 -0.504937,0.583123 -0.241343,0.262627 -0.512953,0.471455 -0.743523,0.744572 -0.162575,0.288263 -0.435374,0.488013 -0.628043,0.752053 -0.06762,0.09263 -0.103685,0.207335 -0.179113,0.293704 -0.075,0.08593 -0.183033,0.137005 -0.265672,0.215615 -0.08885,0.08449 -0.164843,0.181571 -0.247265,0.272358 -0.586851,0.56814 -1.067769,1.226543 -1.603272,1.841799 -0.07459,0.124038 -0.14926,0.248084 -0.223892,0.372125 -0.0957,0.09766 -0.208849,0.180875 -0.286984,0.293088 -0.07642,0.10974 -0.09486,0.252842 -0.170234,0.363324 -0.06736,0.09873 -0.177635,0.161554 -0.251783,0.255295 -0.446978,0.565093 0.08098,0.07277 -0.438598,0.515051 -0.03962,0.05936 -0.315965,0.478991 -0.365893,0.531537 -0.599202,0.630673 0.08264,-0.240837 -0.487693,0.437451 -0.361764,0.430246 0.01544,0.118768 -0.445283,0.446827 -0.191781,0.205819 -0.378776,0.425453 -0.540745,0.65611 -0.05174,0.07367 -0.0829,0.161295 -0.139826,0.231028 -0.580622,0.711249 0.185418,-0.372526 -0.31633,0.358595 -0.03531,0.06692 -0.07467,0.13188 -0.105945,0.200788 -0.03106,0.0683 -0.04194,0.145862 -0.08066,0.210113 -0.03389,0.05623 -0.09322,0.09299 -0.133331,0.144963 -0.0397,0.05146 -0.05914,0.118316 -0.105291,0.164129 -0.289436,0.287679 -0.06039,-0.126546 -0.251011,0.301705 -0.398279,0.446075 0.109291,-0.15017 -0.240123,0.356467 -0.03912,0.05675 -0.101096,0.09496 -0.141693,0.150678 -0.115206,0.158146 -0.202005,0.328205 -0.223436,0.52006 0.912661,1.689396 0.367397,0.656856 -3.739823,-3.785758 -0.04037,-0.04367 0.118206,-0.01391 0.176822,-0.02401 0.380619,-0.06554 0.696202,-0.215196 1.045399,-0.377054 1.882675,-1.034449 -1.095727,0.584797 0.935445,-0.458261 0.151835,-0.07797 0.290249,-0.179899 0.439102,-0.263419 0.145359,-0.08156 0.304869,-0.138525 0.443148,-0.231573 0.942331,-0.634096 -0.280173,0.01992 0.681568,-0.465241 0.352571,-0.14161 0.643301,-0.395934 0.980114,-0.565545 0.0667,-0.0336 0.145523,-0.04422 0.206266,-0.08772 0.05316,-0.0381 0.0841,-0.10024 0.126162,-0.150353 0.04427,-0.05425 0.07243,-0.127335 0.132857,-0.162737 0.07783,-0.04561 0.176422,-0.03957 0.261875,-0.06853 0.09675,-0.0328 0.194995,-0.06543 0.28357,-0.116356 0.09878,-0.05681 0.178433,-0.142372 0.274095,-0.204292 0.58662,-0.379723 0.137083,0.0094 0.661316,-0.504319 1.138795,-0.548658 -0.153098,0.122496 0.835497,-0.538479 0.140623,-0.09402 0.307708,-0.142957 0.450366,-0.233845 0.404591,-0.257771 0.40234,-0.354617 0.785277,-0.650769 0.145291,-0.112363 0.304162,-0.205979 0.45624,-0.308968 0.148055,-0.121352 0.289243,-0.251608 0.444186,-0.364039 0.347669,-0.252276 0.725547,-0.460378 1.079904,-0.703165 0.720389,-0.493582 1.438255,-0.97278 2.180431,-1.434447 1.605749,-1.167326 3.170356,-2.391548 4.710436,-3.643674 0.421037,-0.411042 0.625126,-0.63168 1.078574,-0.994391 0.169512,-0.135597 0.356615,-0.248309 0.52503,-0.385271 0.150906,-0.122736 0.284792,-0.265142 0.431628,-0.392719 0.512064,-0.421683 0.2646,-0.210144 0.74319,-0.633648 0.222879,-0.138348 0.372148,-0.368273 0.585682,-0.517571 0.101836,-0.07126 0.222936,-0.110695 0.32884,-0.175758 0.317393,-0.195012 0.610408,-0.442308 0.900574,-0.67439 0.308672,-0.304278 0.732059,-0.435773 1.069862,-0.698929 0.12033,-0.09374 0.214746,-0.21754 0.333108,-0.313756 0.235429,-0.191326 0.496051,-0.349402 0.742036,-0.526962 0.245296,-0.141117 0.411245,-0.383039 0.642229,-0.541217 0.12019,-0.0823 0.267208,-0.120648 0.38582,-0.205192 0.106817,-0.07613 0.183757,-0.187804 0.28411,-0.272276 0.503509,-0.424215 0.134519,-0.0082 0.523485,-0.498408 0.09654,-0.0684 0.382963,-0.264509 0.47477,-0.354311 0.06462,-0.06319 0.09715,-0.159189 0.172311,-0.209445 0.08543,-0.05713 0.200692,-0.05237 0.291403,-0.100653 0.18674,-0.09943 0.340493,-0.25122 0.513103,-0.373545 0.581661,-0.480683 -0.07734,0.04462 0.595168,-0.426278 0.115081,-0.08058 0.215394,-0.181681 0.333639,-0.257543 0.490958,-0.314976 0.346964,-0.11445 0.795802,-0.489973 0.120306,-0.100652 0.222903,-0.220747 0.334446,-0.331032 0.389117,-0.21771 0.39793,-0.182609 0.694117,-0.492189 0.08066,-0.08426 0.139959,-0.187511 0.22189,-0.270508 0.07135,-0.07247 0.165582,-0.120044 0.236044,-0.193403 0.42955,-0.447203 -0.126461,-0.01121 0.371948,-0.37218 0.05049,-0.06564 0.09049,-0.14094 0.151545,-0.196882 0.05839,-0.05356 0.139319,-0.07712 0.201374,-0.126413 0.242846,-0.192912 0.412382,-0.459214 0.646665,-0.660307 1.2665,-1.757009 0.208159,-0.588702 4.065714,3.713919 0.0436,0.04871 -0.08722,0.09765 -0.13441,0.142936 -0.07401,0.071 -0.152525,0.137195 -0.228784,0.205792 -0.08215,0.09191 -0.159835,0.18808 -0.246451,0.275824 -0.2135,0.216292 -0.446047,0.412986 -0.664539,0.624229 -0.378261,0.365693 -0.737319,0.740029 -1.131486,1.089234 -0.123021,0.130412 -0.246093,0.260777 -0.369115,0.391183 -0.0951,0.145479 -0.171928,0.304704 -0.285307,0.436441 -0.104288,0.121191 -0.255039,0.195959 -0.361565,0.315192 -0.09669,0.108205 -0.157567,0.243905 -0.242863,0.361303 -0.242016,0.333112 -0.224805,0.291535 -0.517738,0.565517 -0.111726,0.128383 -0.405737,0.475303 -0.532182,0.582735 -0.111965,0.09515 -0.254167,0.151834 -0.361615,0.252056 -0.112905,0.105313 -0.179852,0.253715 -0.293114,0.358635 -0.949631,0.879687 0.127698,-0.355189 -0.721503,0.672402 -0.468158,0.526781 -1.021885,0.968125 -1.5085,1.475867 -1.381333,1.441365 0.637836,-0.599133 -0.726462,0.770639 -0.112573,0.128697 -0.225121,0.257413 -0.337693,0.386115 -0.137334,0.103728 -0.297651,0.182565 -0.412001,0.311186 -0.117722,0.132416 -0.157086,0.321596 -0.271145,0.457184 -0.116418,0.138403 -0.284933,0.224493 -0.411203,0.353979 -0.03422,0.03504 -0.679142,0.831336 -0.707947,0.866821 -0.119616,0.15429 -0.239225,0.308587 -0.358851,0.462879 -0.108426,0.168377 -0.205783,0.344428 -0.325283,0.505139 -0.116619,0.156833 -0.26622,0.287411 -0.381417,0.445285 -0.116726,0.159983 -0.194247,0.3464 -0.312261,0.505436 -0.487295,0.544226 -0.263412,0.258089 -0.672322,0.857878 -0.646458,0.862219 -1.255022,1.750808 -1.891869,2.619573 -0.742019,0.895585 -1.342278,1.89845 -1.950103,2.887319 -0.933733,1.252175 -1.660875,2.63692 -2.52404,3.933621 -0.880017,1.367612 -0.076,0.07019 -0.86304,1.484266 -0.121792,0.218839 -0.267706,0.423907 -0.385088,0.64514 -0.346415,0.652912 -0.189853,0.49201 -0.498392,1.099389 -0.06852,0.13494 -0.153182,0.26108 -0.229772,0.391622 -0.177734,0.213619 -0.169121,0.511857 -0.303273,0.743454 -0.05772,0.0997 -0.164021,0.163869 -0.228494,0.259395 -0.06396,0.09454 -0.100187,0.205138 -0.153679,0.305953 -0.150291,0.283318 -0.192976,0.342047 -0.362412,0.615836 -0.03555,0.05087 -0.430557,0.613786 -0.461912,0.668113 -0.0657,0.113906 -0.10153,0.24371 -0.16972,0.356159 -0.06222,0.102597 -0.150715,0.186991 -0.219339,0.28542 -0.231899,0.370508 -0.11313,0.194518 -0.354323,0.5293 -0.06844,0.18219 -0.226749,0.398954 -0.217396,0.607877 0.0017,0.03575 0.06362,0.125952 0.03887,0.100114 -3.883046,-4.050707 -5.216336,-2.841105 -3.643464,-4.161155 0.07483,-0.04521 0.160242,-0.07643 0.224622,-0.13563 0.189911,-0.174626 0.360562,-0.527717 0.529632,-0.732245 0.133779,-0.161834 0.291985,-0.301828 0.437359,-0.453337 0.07177,-0.07346 0.152492,-0.139215 0.21527,-0.220521 0.06586,-0.08539 0.09952,-0.193234 0.168182,-0.276412 0.06861,-0.08309 0.164901,-0.13932 0.239283,-0.217255 0.07667,-0.08031 0.137807,-0.174375 0.212795,-0.256252 0.122714,-0.133977 0.398611,-0.390436 0.528451,-0.513322 1.328632,-0.981153 -0.676757,0.559363 0.608341,-0.645696 0.12803,-0.120046 0.315043,-0.161971 0.448206,-0.276299 0.13721,-0.117791 0.226882,-0.282372 0.353203,-0.41176 0.567914,-0.515268 0.295704,-0.247653 0.81708,-0.802363 0.392258,-0.3587 0.807988,-0.694078 1.193532,-1.06016 0.112456,-0.106743 0.207496,-0.231707 0.325483,-0.332305 0.2114,-0.180227 0.449644,-0.327067 0.662804,-0.50521 0.317718,-0.172208 0.507903,-0.498248 0.774646,-0.723998 0.0895,-0.07575 0.204297,-0.117173 0.295466,-0.190915 0.148405,-0.120048 0.364156,-0.385841 0.48477,-0.526599 0.401875,-0.199638 0.787901,-0.448811 1.132938,-0.736798 0.143555,-0.119799 0.268678,-0.260516 0.411594,-0.381062 0.302858,-0.255449 0.624579,-0.487723 0.932644,-0.736861 0.753706,-0.544821 1.392297,-1.234404 2.153113,-1.767417 0.08507,-0.107822 0.144975,-0.24154 0.255214,-0.323451 0.123637,-0.09187 0.293688,-0.101033 0.424816,-0.181854 0.128854,-0.07942 0.227231,-0.200301 0.346483,-0.293528 0.356316,-0.278583 0.725581,-0.539027 1.07933,-0.82189 0.763632,-0.460033 1.44417,-1.037369 2.17265,-1.547452 0.653101,-0.533632 1.367013,-0.978353 2.046969,-1.47501 0.122963,-0.103189 0.235303,-0.220541 0.368875,-0.309561 0.150614,-0.100378 0.332884,-0.148889 0.479097,-0.255582 0.275397,-0.200965 0.466579,-0.502275 0.73961,-0.706449 1.237953,-0.925727 -0.304926,0.383651 0.745383,-0.531069 0.438788,-0.414455 0.974484,-0.699684 1.400538,-1.124891 0.111052,-0.08123 0.177958,-0.209547 0.284259,-0.29543 0.05092,-0.04111 0.120438,-0.0565 0.168092,-0.101318 0.04577,-0.04314 0.05906,-0.114069 0.105719,-0.156233 0.379923,-0.343368 -0.02318,0.177213 0.272757,-0.239033 0.132956,-0.03252 0.116087,-0.179315 0.190958,-0.254378 0.0162,-0.0162 0.05208,-0.02562 0.06803,-0.0092 1.413485,1.463205 5.24088,2.988224 3.406132,4.261148 -0.07617,0.07071 -0.14573,0.149424 -0.228684,0.212083 -0.09477,0.07153 -0.207653,0.116739 -0.302168,0.188594 -0.319446,0.242841 -0.211092,0.222843 -0.477952,0.52915 -0.170732,0.195972 -0.365859,0.369276 -0.547962,0.554731 -0.196756,0.213757 -0.437077,0.380949 -0.642404,0.585295 -0.101963,0.101477 -0.185451,0.22057 -0.288381,0.32107 -0.105482,0.102946 -0.230453,0.184629 -0.335485,0.288041 -0.07543,0.0743 -0.554051,0.630119 -0.61765,0.70354 -0.714926,0.811144 -1.303364,1.718669 -2.048124,2.50248 -0.227048,0.363321 -0.366682,0.611742 -0.636565,0.945108 -0.116368,0.143758 -0.259259,0.265093 -0.371865,0.411823 -0.224399,0.292441 -0.35762,0.648412 -0.585673,0.938016 -0.106376,0.135092 -0.246891,0.239388 -0.370345,0.359081 -0.08573,0.146269 -0.161654,0.298737 -0.257183,0.438798 -0.09189,0.134709 -0.205618,0.25324 -0.303704,0.383507 -0.382207,0.507586 -0.769189,1.007987 -1.137026,1.526872 -0.4783,0.58913 -0.767427,1.300299 -1.24101,1.889896 -0.04934,0.273616 -0.231541,0.480652 -0.353126,0.716379 -0.03904,0.07562 -0.05058,0.163552 -0.09044,0.238722 -0.0397,0.07481 -0.09757,0.13843 -0.146363,0.207643 -0.0412,0.08722 -0.08239,0.174444 -0.123561,0.261665 -0.05931,0.07926 -0.118644,0.158446 -0.177801,0.237788 -0.05864,0.07862 -0.128272,0.150159 -0.175526,0.236088 -0.162142,0.294828 -0.05989,0.271962 -0.212104,0.57385 -0.08032,0.159358 -0.197702,0.297707 -0.283288,0.454312 -0.389441,1.003574 0.190492,-0.429796 -0.225362,0.421816 -0.0348,0.0712 -0.03414,0.156061 -0.06769,0.227821 -0.0809,0.172991 -0.215304,0.314735 -0.304037,0.514316 -0.04037,0.04633 -0.09141,0.08515 -0.121046,0.138956 -0.06446,0.116892 -0.07849,0.256186 -0.13603,0.376622 -0.08349,0.174735 -0.194886,0.313066 -0.268795,0.493721 -0.03364,0.05106 -0.06728,0.10209 -0.100863,0.153141 -0.02459,0.06013 -0.03896,0.125561 -0.07384,0.180401 -0.167658,0.263801 -0.09383,-0.01365 -0.214231,0.294531 -0.156802,0.40134 0.07126,0.013 -0.165449,0.374496 -0.03812,0.06082 -0.09174,0.114351 -0.114418,0.182466 -0.02301,0.06921 0.0017,0.148144 -0.01894,0.21802 -0.0083,0.02656 -0.04328,0.07422 -0.0628,0.0545 -1.267497,-1.283464 -2.544945,-2.559738 -3.742987,-3.908265 -0.04494,-0.05061 0.08662,-0.10624 0.141967,-0.145206 0.08273,-0.05818 0.178382,-0.09528 0.267566,-0.142927 0.09344,-0.06794 0.196423,-0.124413 0.280306,-0.203857 0.09529,-0.09021 0.157866,-0.211275 0.25322,-0.301431 0.345586,-0.326723 0.358045,-0.20812 0.69995,-0.547129 0.110537,-0.109603 0.191198,-0.24606 0.295398,-0.361707 0.102809,-0.114129 0.216599,-0.217857 0.324894,-0.326788 0.218294,-0.268317 0.339064,-0.4398 0.600915,-0.669275 0.111959,-0.09811 0.246784,-0.168446 0.356117,-0.26947 0.110338,-0.10192 0.19658,-0.227297 0.299701,-0.336509 0.335626,-0.355432 0.283348,-0.290049 0.67621,-0.587743 0.226143,-0.341845 0.610209,-0.501531 0.87216,-0.807461 0.07135,-0.08337 0.10451,-0.197723 0.184885,-0.272464 0.521907,-0.48529 0.04817,0.206692 0.398063,-0.366206 0.304835,-0.348895 0.657928,-0.649135 1.038207,-0.914626 0.118537,-0.133563 0.295857,-0.19334 0.424576,-0.313164 0.234075,-0.217925 0.06063,-0.157354 0.305757,-0.351147 0.09973,-0.07884 0.338756,-0.188491 0.446894,-0.241731 0.21066,-0.20314 0.502404,-0.235687 0.735865,-0.405396 0.08181,-0.05949 0.139609,-0.149531 0.225137,-0.203545 0.691326,-0.43616 -0.05582,0.186809 0.505519,-0.311343 0.180616,-0.05425 0.216632,-0.257191 0.349538,-0.357924 0.06388,-0.04843 0.1602,-0.04223 0.221309,-0.09412 0.05507,-0.04668 0.05748,-0.136817 0.109591,-0.186799 0.568039,-0.5451 -0.158672,0.346794 0.303862,-0.248852 0.18585,-0.298274 -0.0058,-0.05153 0.271253,-0.25189 0.05482,-0.03963 0.08965,-0.104002 0.147027,-0.139809 0.06454,-0.04032 0.149933,-0.04066 0.21218,-0.08448 0.06321,-0.04448 0.0975,-0.120585 0.153995,-0.17332 0.06321,-0.05901 0.135798,-0.107047 0.203691,-0.160578 0.186698,-0.112236 0.273471,-0.145909 0.422176,-0.30614 0.05524,-0.05953 0.08165,-0.145165 0.145398,-0.195458 0.06404,-0.05049 0.152792,-0.05827 0.224797,-0.09655 0.144551,-0.07686 0.217331,-0.149178 0.340095,-0.252977 0.05615,-0.03645 0.125513,-0.05796 0.168356,-0.109369 0.04386,-0.05263 0.03447,-0.138301 0.0804,-0.1891 0.08368,-0.09247 0.501516,-0.277888 0.658401,-0.408443 1.779056,0.812681 0.378178,0.159251 3.996625,4.02823 0.03289,0.03524 -0.03613,0.08971 -0.04825,0.136362 -0.01993,0.07655 -0.04136,0.153593 -0.04793,0.232421 -0.04061,0.483535 0.09938,0.182559 -0.161513,0.563839 -0.03222,0.118096 -0.05374,0.239616 -0.09659,0.354285 -0.04494,0.120341 -0.114716,0.230032 -0.165708,0.347943 -0.05864,0.135616 -0.108685,0.274792 -0.163032,0.41219 -0.05292,0.146463 -0.09722,0.296362 -0.158813,0.439402 -0.516392,1.199098 0.128554,-0.48915 -0.348608,0.797266 -0.159943,0.226774 -0.27519,0.480451 -0.423205,0.7143 -0.06687,0.10563 -0.154719,0.197769 -0.214963,0.3073 -0.06139,0.111578 -0.09229,0.237675 -0.14784,0.352264 -0.28402,0.585892 -0.06711,-0.0039 -0.268462,0.606003 -0.05764,0.06675 -0.120938,0.129042 -0.1729,0.20032 -0.119643,0.164039 -0.143389,0.261349 -0.241336,0.438603 -0.133071,0.240817 -0.284318,0.450644 -0.400637,0.701396 -0.07001,0.07412 -0.151745,0.13868 -0.209954,0.222381 -0.07043,0.101202 -0.105281,0.223801 -0.172352,0.327241 -0.224132,0.345633 -0.528718,0.643363 -0.733838,1.003525 -0.07874,0.13828 -0.132466,0.289384 -0.198698,0.434075 -0.253753,0.369678 -0.432476,0.785126 -0.683088,1.156594 -0.07658,0.113476 -0.179404,0.208627 -0.24934,0.326301 -0.07077,0.119045 -0.108562,0.254953 -0.169877,0.379118 -0.05772,0.116971 -0.124726,0.229165 -0.187087,0.343747 -0.163922,0.281905 -0.273705,0.578663 -0.376384,0.884605 -0.01687,0.05032 -0.05167,0.09479 -0.06121,0.147004 -0.0067,0.03511 0.04029,0.131263 0.01511,0.105976 -1.281835,-1.286789 -2.533243,-2.603537 -3.799869,-3.905304 0.09245,-0.02732 0.09186,-0.137386 0.154411,-0.189665 0.105567,-0.08822 0.248744,-0.120836 0.360295,-0.201369 0.435141,-0.314148 -0.05989,-0.02491 0.465475,-0.308294 0.323682,-0.124445 0.53292,-0.39594 0.791973,-0.605091 0.0929,-0.075 0.201124,-0.129076 0.297018,-0.200199 0.501507,-0.371911 0.04012,-0.101044 0.611406,-0.4018 0.434502,-0.320368 0.778724,-0.826442 1.234695,-1.100518 0.352056,-0.250463 0.76232,-0.380969 1.134683,-0.592548 0,0 3.778075,3.788853 3.778075,3.788853 v 0 c -0.141222,0.08035 -0.287642,0.172086 -0.442178,0.22651 -0.08855,0.03119 -0.188673,0.02943 -0.272258,0.07221 -0.150573,0.07705 -0.231233,0.257618 -0.39229,0.321868 -0.465358,0.482996 0.170193,-0.129658 -0.397763,0.262046 -0.0696,0.04802 -0.106127,0.133289 -0.171239,0.187294 -0.239149,0.198339 -0.546019,0.322776 -0.760034,0.556579 -0.198684,0.14086 -0.419668,0.250779 -0.608025,0.405184 -0.09073,0.07436 -0.151256,0.180709 -0.240214,0.257163 -0.08833,0.0759 -0.203192,0.117832 -0.28843,0.197203 -0.0814,0.07578 -0.123496,0.187751 -0.20556,0.262818 -0.079,0.07216 -0.180333,0.115085 -0.270505,0.172625 -0.754869,0.444845 0.173257,-0.141505 -0.422392,0.351501 -0.05914,0.04905 -0.141237,0.06282 -0.204696,0.106192 -0.117697,0.08044 -0.181264,0.220424 -0.313814,0.281028 -1.32593,-1.298182 -2.666896,-2.581175 -3.977784,-3.894543 -0.01794,-0.01796 0.05441,-5.74e-4 0.07442,-0.01624 0.03879,-0.03048 0.0652,-0.07438 0.09297,-0.115142 0.171953,-0.251941 0.298264,-0.5335 0.483681,-0.777002 0.426545,-0.733844 0.857723,-1.466245 1.310665,-2.184425 0.814208,-1.793925 -0.412606,0.850724 0.443879,-0.812825 0.06828,-0.132596 0.08881,-0.287232 0.162658,-0.416796 0.06264,-0.109892 0.173707,-0.185878 0.241667,-0.292547 0.366533,-0.575342 -0.0652,-0.138263 0.389525,-0.542389 0.0814,-0.166697 0.149602,-0.339751 0.234008,-0.504952 0.116194,-0.227409 0.267914,-0.42555 0.404716,-0.6383 0.0495,-0.07699 0.08884,-0.160053 0.133255,-0.240085 0.352288,-0.64955 0.781814,-1.254257 1.124973,-1.909163 0.07459,-0.117805 0.160507,-0.229145 0.223751,-0.353405 0.130181,-0.255809 0.213076,-0.58645 0.315774,-0.851065 0.152251,-0.392292 0.356489,-0.755806 0.347269,-1.192708 0.15182,-0.385425 0.09774,-0.177599 0.148415,-0.576981 0.01046,-0.08258 0.02217,-0.164995 0.03289,-0.247548 0.0067,-0.05476 -0.02003,-0.202106 0.02035,-0.164381 4.125187,3.860466 5.475928,4.304177 3.72121,3.711635 -0.192079,0.03953 -0.38244,0.10414 -0.527871,0.245083 -0.141537,0.137152 -0.221018,0.338108 -0.421562,0.419432 -0.300357,0.371213 0.08008,-0.03512 -0.368242,0.224743 -0.06562,0.03803 -0.09754,0.1175 -0.156953,0.164597 -0.201282,0.159536 -0.471805,0.222539 -0.639505,0.429457 -0.08347,0.100906 -0.217853,0.283244 -0.337179,0.354465 -0.06644,0.03964 -0.151262,0.03988 -0.218476,0.07816 -0.307168,0.174944 -0.01761,0.07659 -0.256127,0.290013 -0.04851,0.04347 -0.115471,0.0604 -0.173208,0.0906 -0.116758,0.144353 -0.248211,0.33992 -0.398294,0.450855 -0.0628,0.04642 -0.148473,0.05698 -0.208318,0.107147 -0.583182,0.488866 0.342278,-0.100325 -0.378535,0.328845 -0.27068,0.143858 -0.503085,0.322642 -0.76271,0.48274 -0.08448,0.0521 -0.174761,0.09411 -0.26215,0.141172 -0.08352,0.04257 -0.170782,0.0785 -0.250587,0.127688 -0.07293,0.04496 -0.137342,0.10247 -0.206008,0.153706 -0.892618,0.656127 0.423271,-0.326049 -0.373476,0.31536 -0.280407,0.225734 -0.106004,0.02704 -0.403828,0.252798 -0.643841,0.488034 0.305192,-0.141579 -0.415829,0.321933 -0.05782,0.07 -0.108321,0.146793 -0.173466,0.21006 -0.113545,0.110406 -0.288346,0.153028 -0.38488,0.278582 -0.04485,0.05828 -0.02035,0.157049 -0.07334,0.208057 -0.05648,0.05444 -0.148305,0.05119 -0.222462,0.07679 -0.05457,0.05381 -0.109209,0.107614 -0.163788,0.16145 -0.483458,0.357867 0.06919,-0.07991 -0.383818,0.380493 -0.35478,0.360459 -0.851852,0.567197 -1.212046,0.924481 -1.089722,1.204609 0.495318,-0.507621 -0.656591,0.607423 -0.108237,0.104764 -0.182851,0.24037 -0.287832,0.348408 -0.102999,0.106 -0.229947,0.186672 -0.334047,0.291603 -0.21105,0.212677 -0.368584,0.475551 -0.609528,0.660641 -0.120198,0.09699 -0.246974,0.18636 -0.360627,0.29095 -0.329413,0.303148 -0.607958,0.663611 -0.923699,0.980683 -0.09229,0.09265 -0.199114,0.170801 -0.28618,0.268386 -0.077,0.08626 -0.135796,0.187119 -0.203699,0.280672 -1.486081,1.740606 -2.253791,-1.426753 -4.361644,-3.520654 -0.02201,-0.02181 0.134077,-0.02461 0.209224,-0.144618 0.04153,-0.06638 0.04934,-0.148655 0.074,-0.222985 0.04842,-0.0736 0.169678,-0.248863 0.204538,-0.335302 0.09416,-0.233514 0.144136,-0.499874 0.343841,-0.67329 0.06537,-0.158181 0.07367,-0.199098 0.165914,-0.342155 0.03289,-0.05099 0.08132,-0.09211 0.107673,-0.146751 0.02973,-0.06179 0.0294,-0.135089 0.05815,-0.197378 0.01337,-0.02905 0.193674,-0.280452 0.211524,-0.305609 0.03116,-0.05713 0.06654,-0.112144 0.09337,-0.171402 0.02907,-0.06414 0.03464,-0.139501 0.07401,-0.197875 0.03721,-0.05513 0.111219,-0.07795 0.149012,-0.132669 0.129084,-0.186838 0.14235,-0.45975 0.321513,-0.621129 0.258769,-0.515804 0.487361,-1.043223 0.857507,-1.493226 0.03572,-0.09273 0.07143,-0.185437 0.107124,-0.278154 0.03805,-0.08001 0.08024,-0.158151 0.114052,-0.240038 0.03281,-0.07956 0.04353,-0.1685 0.08558,-0.2436 0.122657,-0.219121 0.384483,-0.359549 0.449818,-0.619414 0.371807,-0.655686 0.803883,-1.263041 1.30417,-1.826562 0.184462,-0.247915 0.383469,-0.485151 0.560181,-0.738649 0.18947,-0.271787 0.308389,-0.591177 0.515345,-0.849893 0.101245,-0.12656 0.238236,-0.219806 0.357337,-0.329717 0.09981,-0.132153 0.199613,-0.264304 0.299411,-0.396456 0.694741,-0.855299 1.356183,-1.732686 1.970611,-2.647848 0.248603,-0.29559 0.48247,-0.562255 0.708247,-0.876282 0.108934,-0.151508 0.190625,-0.322669 0.309726,-0.466328 0.112017,-0.135139 0.267617,-0.229815 0.379507,-0.365059 0.221325,-0.267504 0.348467,-0.604373 0.581561,-0.864088 0.204622,-0.236133 0.391228,-0.488263 0.606605,-0.714621 0.101392,-0.106614 0.224938,-0.190635 0.325908,-0.29764 0.09913,-0.10507 0.17378,-0.231526 0.272723,-0.336775 0.198234,-0.210851 0.447791,-0.370356 0.620219,-0.607545 0.908082,-0.756763 -0.24136,0.247593 0.529257,-0.573486 0.08436,-0.08986 0.198758,-0.146416 0.290856,-0.22833 0.255163,-0.22694 0.408145,-0.53292 0.695878,-0.723632 0.05241,-0.06665 0.103982,-0.133914 0.157102,-0.199973 0.04261,-0.05293 0.07907,-0.20204 0.129966,-0.15703 7.399019,6.544226 5.22142,2.575368 3.677453,4.010814 -0.163083,0.200888 -0.361449,0.32277 -0.551593,0.49154 -0.04959,0.04408 -0.08165,0.106322 -0.133546,0.147724 -0.0569,0.04535 -0.125871,0.07301 -0.188807,0.109511 -0.495053,0.354539 -0.927968,0.78018 -1.494063,1.031093 -0.674283,0.59495 0.06536,-0.02401 -0.739461,0.537007 -0.138139,0.0963 -0.257938,0.217231 -0.395846,0.313858 -0.145938,0.102248 -0.312143,0.174304 -0.454277,0.281764 -0.138314,0.104573 -0.245547,0.246368 -0.383403,0.351551 -0.130456,0.09961 -0.278645,0.17355 -0.417964,0.260322 -0.528453,0.522021 -0.104118,0.142959 -0.691833,0.567511 -0.4376,0.316115 -0.823985,0.697356 -1.297617,0.965182 -0.761513,0.619212 0.116661,-0.05759 -0.741371,0.484722 -0.122199,0.07723 -0.223467,0.184508 -0.345011,0.262756 -0.129443,0.08331 -0.283023,0.127595 -0.405755,0.220505 -0.119508,0.09047 -0.203823,0.220124 -0.312567,0.323288 -0.10699,0.101529 -0.222762,0.193391 -0.334155,0.290074 -0.14716,0.06431 -0.308389,0.103041 -0.44147,0.192943 -0.122225,0.08257 -0.199613,0.218041 -0.310641,0.315156 -0.441303,0.385972 -0.954025,0.684042 -1.389024,1.077224 -0.334331,0.30954 -0.646641,0.496498 -0.99048,0.779211 -0.117142,0.09632 -0.215129,0.215802 -0.3385,0.303996 -0.144128,0.103009 -0.306546,0.177685 -0.459818,0.266531 -0.149312,0.111272 -0.298631,0.222545 -0.447949,0.333812 -0.139743,0.136058 -0.274028,0.277943 -0.419161,0.408234 -1.198175,1.075679 0.254624,-0.283695 -0.902826,0.732 -0.33119,0.290626 -0.613009,0.641431 -0.989657,0.880495 -0.07849,0.06826 -0.456846,0.394405 -0.536709,0.474506 -0.08114,0.08126 -0.145823,0.178409 -0.229748,0.25683 -0.260587,0.243493 -0.568047,0.456038 -0.888547,0.609768 -0.131668,0.112421 -0.506639,0.435943 -0.636282,0.531799 -0.136229,0.100716 -0.689458,0.446843 -0.806599,0.556495 -0.130448,0.122099 -0.213891,0.28807 -0.341374,0.413262 -0.134152,0.131898 -0.293131,0.235908 -0.439701,0.35386 -0.413313,0.378438 -0.821168,0.770817 -1.198856,1.185468 -0.115521,0.12681 -0.214106,0.268396 -0.329686,0.395162 -0.103866,0.113901 -0.230096,0.206952 -0.327935,0.326076 -0.0917,0.111672 -0.158357,0.241746 -0.23753,0.362618 -0.494554,0.452315 -0.988104,0.923181 -1.377113,1.470587 -0.293771,0.239549 -0.223701,0.134749 -0.406045,0.484745 -0.05133,0.09858 -0.07418,0.213648 -0.141893,0.301783 -0.06312,0.0821 -0.167261,0.123377 -0.24087,0.196229 -0.124475,0.123196 -0.201274,0.289948 -0.346349,0.395076 -1.045525,1.75661 -0.08148,0.273259 -4.094412,-3.598814 -0.01853,-0.01785 -0.02692,-0.0532 -0.01454,-0.07576 0.01919,-0.03502 0.06811,-0.04323 0.09555,-0.07222 0.04584,-0.04821 0.08644,-0.101719 0.122523,-0.15764 0.05008,-0.07757 0.09014,-0.161174 0.135199,-0.241766 0.103083,-0.11887 0.31756,-0.356501 0.395289,-0.488215 0.06453,-0.109272 0.09131,-0.23856 0.159128,-0.345798 0.211516,-0.334417 0.575,-0.567607 0.684341,-0.97142 0.130083,-0.202098 0.267865,-0.394971 0.358277,-0.619985 0.04593,-0.114223 0.05125,-0.243527 0.106003,-0.353762 0.05175,-0.104056 0.141611,-0.184372 0.208666,-0.279282 0.369108,-0.522483 0.0083,-0.06903 0.449702,-0.596604 0.279244,-0.453728 0.547167,-0.928579 0.857068,-1.361739 0.142275,-0.198856 0.322577,-0.370072 0.453356,-0.576673 0.152924,-0.241591 0.262664,-0.507952 0.393992,-0.761928 0.160109,-0.237005 0.320235,-0.474005 0.480344,-0.711008 0.163248,-0.243944 0.344239,-0.476906 0.489745,-0.731829 0.696992,-1.22109 0.10117,-0.43515 0.799464,-1.580464 0.132193,-0.216822 0.312311,-0.402495 0.439261,-0.622426 0.118912,-0.206007 0.196706,-0.43315 0.295058,-0.649727 0.107715,-0.175685 0.215429,-0.351371 0.323142,-0.527055 0.121827,-0.152763 0.259541,-0.294102 0.365487,-0.458278 0.109781,-0.170114 0.182443,-0.36155 0.27857,-0.539739 0.07442,-0.137977 0.494148,-0.87991 0.586031,-1.007707 0.110719,-0.154006 0.257315,-0.279681 0.370469,-0.431909 0.115031,-0.154778 0.208284,-0.324607 0.312427,-0.486915 0.104287,-0.157255 0.208591,-0.314509 0.312892,-0.47176 0.12077,-0.129349 0.258502,-0.24476 0.36223,-0.388145 0.107339,-0.148391 0.167217,-0.326539 0.266202,-0.480631 0.288007,-0.448349 0.686925,-0.803234 0.987971,-1.2415 0.430548,-0.581493 0.210777,-0.291196 0.65954,-0.8707 0.235328,-0.314209 0.447541,-0.645655 0.690064,-0.954345 0.121262,-0.154351 0.268546,-0.287863 0.382762,-0.4475 0.11632,-0.162577 0.204199,-0.343724 0.306289,-0.515585 0.481822,-0.530859 0.961882,-1.095668 1.419898,-1.648298 0.109525,-0.132146 0.200743,-0.280004 0.320269,-0.403181 0.1192,-0.122849 0.261617,-0.220822 0.392414,-0.331238 1.363516,-1.257421 -0.610658,0.611147 0.699948,-0.797225 0.122391,-0.131544 0.281379,-0.223807 0.415556,-0.343302 0.391011,-0.348237 0.773565,-0.718369 1.085327,-1.140206 0.08114,-0.07539 0.636764,-0.588962 0.71833,-0.675579 0.205543,-0.21827 0.356391,-0.485275 0.569368,-0.696301 0.834583,-0.826924 -0.144452,0.32532 0.567932,-0.546886 0.359597,-0.353179 0.17182,-0.179893 0.564293,-0.518829 0.470425,-0.452323 0.863487,-0.982143 1.285696,-1.477193 0.690588,-0.652955 1.286784,-1.401223 1.942744,-2.089298 0.05996,-0.08491 0.128447,-0.164437 0.180002,-0.254721 0.0353,-0.06186 0.02591,-0.246229 0.0789,-0.198621 4.114147,3.696377 5.46066,2.913872 3.602182,3.975855 -0.110039,0.100579 -0.206025,0.215876 -0.31623,0.316261 -0.05889,0.0536 -0.135905,0.0865 -0.18997,0.145025 -0.05548,0.06006 -0.07882,0.145124 -0.133952,0.205558 -0.05249,0.0575 -0.122889,0.09566 -0.184322,0.143511 -0.05457,0.06156 -0.109151,0.123111 -0.163721,0.184672 -0.338774,0.211958 -0.612885,0.499024 -0.945844,0.719799 -0.113611,0.07533 -0.240985,0.129399 -0.350958,0.209967 -0.119176,0.08732 -0.222488,0.194452 -0.333731,0.291673 -0.869021,0.568027 0.04668,-0.04901 -0.761515,0.550955 -0.122963,0.09129 -0.260613,0.162572 -0.378842,0.259914 -0.295233,0.243071 -0.516117,0.577896 -0.886736,0.726015 -0.07642,0.07183 -0.146479,0.150988 -0.229116,0.215547 -0.308748,0.241492 -0.213385,0.101709 -0.50802,0.32622 -0.227414,0.173293 -0.406975,0.410867 -0.666841,0.543936 -0.361232,0.213058 -0.57686,0.427712 -0.906447,0.67155 -0.339611,0.251259 -0.722815,0.446096 -1.01044,0.764074 -0.123552,0.08499 -0.244698,0.173602 -0.370684,0.254955 -0.131122,0.08468 -0.280349,0.143094 -0.400306,0.24297 -0.1174,0.09776 -0.185824,0.246062 -0.303706,0.343242 -0.116625,0.09615 -0.263054,0.149169 -0.391067,0.229538 -0.28672,0.180007 -0.407292,0.277003 -0.673594,0.474601 -1.257414,0.824045 0.547572,-0.405853 -0.56686,0.507147 -0.09565,0.07838 -0.222853,0.108155 -0.328424,0.172551 -0.327668,0.199854 -0.624305,0.454046 -0.948826,0.658924 -0.979099,0.641306 0.183183,-0.14217 -0.789371,0.587335 -1.993312,1.495154 1.1244,-0.923204 -1.016994,0.717489 -0.185691,0.142278 -0.354821,0.306302 -0.547057,0.439604 -0.216624,0.150214 -0.451214,0.27271 -0.676816,0.409065 -1.063142,0.779344 -0.340119,0.262364 -1.498725,1.054787 -0.281095,0.192251 -0.571859,0.371377 -0.841177,0.579805 -0.819747,0.634413 -1.526216,1.416142 -2.414581,1.964914 -2.469976,2.093091 0.872716,-0.708735 -1.423553,1.124343 -0.197021,0.157284 -0.370703,0.342309 -0.566877,0.500647 -0.477145,0.385081 -1.006826,0.709734 -1.430313,1.161253 -0.159504,0.09553 -0.330285,0.174384 -0.478516,0.286617 -0.139144,0.105355 -0.242804,0.251966 -0.378244,0.362048 -0.129502,0.105292 -0.280308,0.181743 -0.413761,0.281976 -0.129552,0.09731 -0.239059,0.220933 -0.3744,0.310029 -0.140605,0.09258 -0.308015,0.13936 -0.448671,0.231868 -0.1372,0.09023 -0.25347,0.208839 -0.380196,0.313261 -0.213916,0.175514 -0.439586,0.336435 -0.652488,0.513176 -0.08683,0.07209 -0.159951,0.159795 -0.247655,0.230808 -0.584885,0.473641 0.09068,-0.106763 -0.46447,0.266103 -0.05782,0.03885 -0.09854,0.09849 -0.147825,0.147715 -0.365726,0.124126 -0.06105,-0.0072 -0.365992,0.204408 -0.284825,0.197635 -0.126793,0.04638 -0.454361,0.221729 -0.902103,0.482873 0.517629,-0.189829 -0.562316,0.307148 -0.57878,0.247505 -1.119708,0.545367 -1.664846,0.858919 -0.149212,0.08582 -0.284577,0.195304 -0.437475,0.27438 -0.154362,0.07983 -0.320775,0.133819 -0.481167,0.200729 -2.448519,1.521929 -0.904063,0.767665 -5.00938,-3.312925 -0.0085,-0.0083 0.02102,-0.01136 0.03157,-0.01706 0.137226,-0.379654 0.348734,-0.724973 0.581537,-1.050995 0.125258,-0.21043 0.233494,-0.272478 0.370886,-0.4512 0.04136,-0.05376 0.05964,-0.123261 0.102818,-0.175565 0.260249,-0.315332 0.07758,0.07544 0.236202,-0.361139 0.20556,-0.397383 -0.01337,-0.05801 0.318955,-0.35596 0.318855,-0.285865 0.03763,-0.106292 0.306887,-0.451344 0.06121,-0.07849 0.370004,-0.314009 0.440033,-0.369259 0.430481,-0.474987 0.882393,-0.926848 1.32079,-1.393835 0.08549,-0.06756 0.183265,-0.121986 0.256469,-0.202707 0.245361,-0.270553 0.161553,-0.329997 0.3762,-0.625516 0.237389,-0.326823 0.60849,-0.556989 0.755433,-0.954 0.258777,-0.33532 0.531833,-0.661992 0.81273,-0.979109 0.0895,-0.101033 0.197977,-0.185398 0.279567,-0.292914 0.15736,-0.207397 0.231043,-0.471778 0.427117,-0.653869 0.09293,-0.08026 0.194529,-0.151444 0.278721,-0.240814 0.228601,-0.242656 0.389407,-0.55708 0.6204,-0.797966 0.07501,-0.07823 0.173955,-0.130609 0.250397,-0.207447 0.0765,-0.07691 0.137557,-0.167766 0.206349,-0.251632 0.354464,-0.317929 0.660221,-0.684387 1.016362,-1.001517 0.09882,-0.088 0.214373,-0.156571 0.309761,-0.248288 0.102702,-0.09876 0.188191,-0.213978 0.2823,-0.320963 0.633857,-0.608257 1.211049,-1.275517 1.905747,-1.820244 0.577817,-0.656902 1.238702,-1.237641 1.766373,-1.937621 0.31751,-0.355716 0.66934,-0.686894 0.961317,-1.064877 0.07193,-0.09313 0.124758,-0.199992 0.19619,-0.293517 0.07218,-0.0945 0.155865,-0.1796 0.233794,-0.269402 0.360676,-0.572104 0.03473,-0.09447 0.451819,-0.603295 0.37939,-0.462859 0.108287,-0.177433 0.486938,-0.646047 0.08437,-0.104425 0.188075,-0.193286 0.264882,-0.303389 0.0775,-0.111107 0.130166,-0.237602 0.195251,-0.356401 0.291504,-0.273796 0.239151,-0.200184 0.474405,-0.515626 0.123654,-0.165799 0.223428,-0.349097 0.353028,-0.510289 0.06254,-0.07773 0.150224,-0.134465 0.205684,-0.217388 0.06114,-0.09139 0.09305,-0.199235 0.139575,-0.298856 0.373926,-0.356197 0.08057,-0.04203 0.377656,-0.465015 0.260355,-0.370697 0.564392,-0.715728 0.85514,-1.061797 0.820079,-1.012645 -0.354123,0.406206 0.58975,-0.625911 0.106601,-0.116618 0.189497,-0.253077 0.291213,-0.373973 0.311778,-0.370585 0.643235,-0.724723 0.929638,-1.117082 0.374797,-0.401163 0.347503,-0.345225 0.670347,-0.801039 0.110919,-0.156612 0.205983,-0.324277 0.320408,-0.478351 0.367894,-0.495386 0.785643,-0.956925 1.163306,-1.444898 0.370718,-0.472577 0.732765,-0.959894 1.062519,-1.462394 0.101107,-0.154093 0.175133,-0.325427 0.281967,-0.47561 0.177636,-0.249719 0.430864,-0.44055 0.578513,-0.714535 0.0554,-0.134017 0.09209,-0.277386 0.166181,-0.402047 0.06388,-0.107423 0.163007,-0.189475 0.242597,-0.285817 0.330534,-0.40013 0.681045,-0.777487 0.983296,-1.201673 0.810345,-0.879734 -0.154245,0.23182 0.575364,-0.844028 0.105091,-0.15496 0.269451,-0.264699 0.369939,-0.42268 0.297682,-0.468051 0.367712,-1.054014 0.653724,-1.528906 0.20091,-0.420184 0.167694,-0.294695 0.274535,-0.717717 0.01927,-0.07638 -0.009,-0.283516 0.04975,-0.231007 1.336687,1.195512 2.580163,2.491321 3.870255,3.736982 -0.04162,-0.0076 -0.08329,-0.03061 -0.124933,-0.02296 -0.0662,0.01214 -0.123595,0.05326 -0.185393,0.07991 -0.197487,0.163774 -0.354655,0.363503 -0.559633,0.518027 -0.139843,0.10545 -0.3104,0.168973 -0.440998,0.285685 -0.06462,0.05775 -0.10886,0.13487 -0.163298,0.202295 -0.178481,0.15323 -0.449802,0.500777 -0.623748,0.604247 -0.06844,0.04072 -0.156081,0.04177 -0.223734,0.08377 -0.06736,0.04181 -0.115546,0.108534 -0.173348,0.16277 -0.577384,0.410196 -1.193624,0.762247 -1.763864,1.18323 -0.573862,0.517094 -1.1981,0.964329 -1.811831,1.42972 -0.409591,0.527811 0.0017,0.05219 -0.502006,0.482641 -0.450058,0.38443 -0.03297,0.115959 -0.502039,0.486434 -0.09606,0.07585 -0.206738,0.131612 -0.304102,0.205769 -0.100874,0.07686 -0.193176,0.164379 -0.28976,0.246575 -0.61879,0.640337 0.07276,-0.02981 -0.649987,0.529657 -0.431736,0.334205 -0.765974,0.803114 -1.275729,1.026629 -0.18428,0.16259 -0.355885,0.340503 -0.551294,0.489541 -0.08669,0.06612 -0.190825,0.107574 -0.275713,0.176 -0.08124,0.06549 -0.132608,0.16553 -0.219606,0.223201 -0.183723,0.121843 -0.439162,0.114867 -0.585233,0.308063 -1.03731,0.821813 0.498666,-0.414225 -0.525961,0.476077 -0.402954,0.350126 -0.92565,0.538207 -1.300065,0.928284 -0.09452,0.08487 -0.189122,0.169682 -0.283671,0.254528 -0.100335,0.06346 -0.209713,0.114496 -0.301013,0.190381 -0.08412,0.06991 -0.13569,0.173919 -0.220454,0.243044 -0.231076,0.188443 -0.556668,0.257863 -0.761048,0.487753 -0.923067,0.51071 -1.683378,1.269079 -2.557372,1.854638 -1.241085,1.102798 -2.579657,2.085991 -3.891443,3.101885 -2.009194,1.679919 0.839317,-0.67044 -1.152258,0.873655 -0.173972,0.134891 -0.319837,0.303782 -0.494573,0.437694 -0.174245,0.133544 -0.375079,0.229711 -0.549765,0.36269 -0.02408,0.0184 -0.826235,0.734912 -0.863064,0.767778 -0.16172,0.09052 -0.335227,0.16263 -0.485169,0.271569 -0.142691,0.103675 -0.255331,0.243466 -0.386293,0.361612 -0.486597,0.438933 -0.954573,0.891277 -1.41724,1.355269 -0.0887,0.108814 -0.170791,0.223371 -0.266112,0.326431 -0.08522,0.09213 -0.195127,0.160537 -0.274309,0.257917 -0.07177,0.08826 -0.101593,0.205833 -0.174081,0.293496 -0.06162,0.07455 -0.152325,0.119692 -0.222537,0.186214 -0.55936,0.529928 0.183208,-0.112757 -0.367138,0.353926 -0.277085,0.371489 0.03472,0.0254 -0.370653,0.262799 -0.0716,0.04196 -0.120855,0.114061 -0.185617,0.165968 -0.265572,0.212726 -0.542124,0.4179 -0.83739,0.587507 -1.03432,0.591236 0.235503,-0.162883 -0.822705,0.564624 -0.162967,0.112037 -0.348019,0.189766 -0.509655,0.303703 -0.524831,0.369931 -0.956807,0.859329 -1.473988,1.239192 -0.604636,0.561476 -0.282242,0.302537 -0.968287,0.775457 -0.150947,0.134 -0.261069,0.308079 -0.398213,0.456174 -0.349937,0.37789 -0.733555,0.725716 -1.06001,1.125767 -0.757834,1.000339 0.215296,-0.27033 -0.457643,0.569833 -0.05158,0.06442 -0.08313,0.254574 -0.145448,0.200441 -5.616542,-4.878243 -5.27697,-2.558947 -3.779426,-3.932398 0.519024,-0.37044 -0.144137,0.13122 0.334504,-0.32992 0.06404,-0.06161 0.150689,-0.09563 0.216981,-0.154771 0.223176,-0.199083 0.324121,-0.487514 0.57592,-0.658317 0.280216,-0.324373 0.124718,-0.167734 0.470867,-0.465535 0.37699,-0.425725 0.587384,-0.995449 1.01804,-1.381929 0.20021,-0.243546 0.37817,-0.505192 0.584129,-0.743897 0.107771,-0.124908 0.242064,-0.225551 0.347402,-0.352513 0.315292,-0.380272 0.543004,-0.834549 0.85907,-1.215215 0.227978,-0.359097 0.480882,-0.695777 0.716794,-1.048256 0.06678,-0.09973 0.11224,-0.213199 0.183606,-0.309681 0.06529,-0.08824 0.157857,-0.153771 0.223967,-0.241393 0.06162,-0.08162 0.104721,-0.175649 0.157085,-0.263473 0.04343,-0.09426 0.07135,-0.197341 0.130307,-0.28278 0.05632,-0.08168 0.143911,-0.136936 0.210135,-0.210829 0.106709,-0.119079 0.234673,-0.311064 0.350062,-0.424633 0.06222,-0.06114 0.143928,-0.101202 0.202412,-0.165944 0.05241,-0.058 0.08407,-0.131805 0.126104,-0.197713 0.703644,-0.644522 -0.35664,0.353157 0.316887,-0.374506 0.05682,-0.06137 0.135348,-0.09861 0.198607,-0.153332 0.236575,-0.204626 0.484878,-0.395419 0.623964,-0.683993 0.383304,-0.541821 0.02899,-0.08354 0.490195,-0.563785 0.392497,-0.408693 0.763033,-0.840216 1.234016,-1.166611 0.150007,-0.200969 0.417033,-0.573657 0.594493,-0.750218 0.116153,-0.115562 0.267889,-0.192935 0.377829,-0.31442 0.107107,-0.118297 0.166878,-0.273061 0.266569,-0.397671 0.18143,-0.226778 0.430672,-0.394977 0.577799,-0.652108 0.16893,-0.211195 0.31,-0.444551 0.487934,-0.648219 0.0833,-0.09536 0.200835,-0.158005 0.279609,-0.257148 0.08148,-0.102544 0.119451,-0.234228 0.195543,-0.340845 0.15206,-0.213062 0.324005,-0.348884 0.516192,-0.521412 0.638724,-0.599779 -0.0677,0.0963 0.486914,-0.552516 0.0711,-0.08317 0.167218,-0.143228 0.235162,-0.228982 0.188973,-0.238647 0.30157,-0.545705 0.523045,-0.763586 0.162193,-0.254396 0.361582,-0.446253 0.54337,-0.684115 0.214406,-0.280553 0.40685,-0.579043 0.643359,-0.844094 0.255895,-0.330805 0.4909,-0.67962 0.746995,-1.009009 0.276867,-0.356097 0.591404,-0.682848 0.790768,-1.095775 0.265081,-0.353298 0.583678,-0.676911 0.830719,-1.042337 0.08872,-0.131243 0.14598,-0.282353 0.23744,-0.411706 0.08747,-0.123717 0.197983,-0.229412 0.296976,-0.34412 0.08972,-0.128607 0.179462,-0.257211 0.269194,-0.385818 0.09877,-0.117171 0.212138,-0.22345 0.296312,-0.351511 0.470284,-0.715443 -0.02666,-0.164263 0.455484,-0.859252 0.264549,-0.381349 0.647494,-0.683459 0.799331,-1.142923 0.155498,-0.222978 0.301395,-0.45277 0.46304,-0.671335 0.07035,-0.09506 0.155524,-0.178763 0.222854,-0.275956 0.183216,-0.264481 0.302966,-0.569203 0.576221,-0.764104 0.365096,-0.580416 -0.04402,0.0249 0.418604,-0.520423 0.246027,-0.290013 0.435074,-0.61904 0.647038,-0.931554 0.06953,-0.102523 0.150923,-0.196484 0.226383,-0.294724 0.04884,-0.120599 0.08273,-0.248331 0.146395,-0.361792 0.05607,-0.09996 0.147859,-0.176022 0.209499,-0.272644 0.128213,-0.200998 0.220526,-0.423013 0.341763,-0.628297 0.05266,-0.08921 0.117257,-0.171469 0.16476,-0.263538 0.04236,-0.08212 0.06919,-0.171354 0.103812,-0.257033 0.04162,-0.06585 0.117158,-0.119995 0.124791,-0.197506 0.01025,-0.104203 -0.151878,-0.37629 -0.07525,-0.304986 1.340418,1.246484 2.601353,2.57578 3.902034,3.863667 -0.03107,-0.0051 -0.06246,-0.02188 -0.09322,-0.01525 -0.110313,0.02373 -0.189587,0.13703 -0.310042,0.135876 -0.08341,0.08623 -0.154726,0.184237 -0.242939,0.265556 -0.04494,0.0414 -0.106076,0.06378 -0.147774,0.108435 -0.0427,0.04574 -0.05333,0.117816 -0.10116,0.158132 -0.051,0.04296 -0.13372,0.03596 -0.182784,0.0811 -0.04909,0.04517 -0.06413,0.116976 -0.09615,0.175465 -0.335658,0.147322 -0.246175,0.217733 -0.493616,0.404571 -0.216564,0.163535 -0.492594,0.270698 -0.73456,0.386766 -0.30853,0.477077 0.0098,0.08981 -0.476007,0.397998 -0.096,0.06092 -0.168398,0.15317 -0.258469,0.222542 -0.30942,0.238292 -0.675454,0.392418 -0.94748,0.680012 -0.100874,0.100462 -0.19124,0.212741 -0.3026,0.301437 -0.172593,0.137345 -0.599254,0.362653 -0.781707,0.487295 -0.356298,0.243418 -0.67777,0.539182 -1.015681,0.806261 -1.147673,0.791881 0.432733,-0.333354 -0.569898,0.48934 -0.094,0.07713 -0.212654,0.119237 -0.31079,0.191037 -0.09222,0.06747 -0.166945,0.156732 -0.258338,0.225336 -0.532091,0.399741 -0.03597,-0.06608 -0.509264,0.41105 -0.591555,0.414488 -1.217794,0.788133 -1.761455,1.263764 -0.389449,0.244475 -0.746355,0.521848 -1.121393,0.787556 -0.12652,0.08963 -0.631473,0.435445 -0.755998,0.534898 -0.117524,0.09385 -0.225122,0.199458 -0.337678,0.299189 -0.306978,0.245927 -0.663069,0.470957 -0.926805,0.765876 -0.07849,0.08777 -0.127956,0.19962 -0.210179,0.283889 -0.1574,0.16129 -0.380784,0.248078 -0.535137,0.413202 -0.300109,0.322436 -0.140872,0.1658 -0.47899,0.468592 -0.07932,0.0844 -0.133471,0.190885 -0.215719,0.272453 -0.08318,0.08263 -0.185807,0.143104 -0.277291,0.216461 -0.407017,0.326361 -0.143522,0.170245 -0.654198,0.394394 -0.42603,0.381062 -0.1933,0.208326 -0.701776,0.513349 -0.11975,0.0953 -0.204049,0.229194 -0.319155,0.330049 -0.362745,0.317799 -0.822505,0.487073 -1.151453,0.84636 -0.321828,0.276186 -0.344987,0.279857 -0.630053,0.587373 -0.09488,0.102344 -0.177576,0.215791 -0.27518,0.315538 -0.264004,0.269818 -0.569851,0.50147 -0.8118,0.794363 -0.232921,0.252866 -0.482436,0.475549 -0.724793,0.7171 -0.08971,0.08939 -0.161346,0.19608 -0.253453,0.282991 -0.913523,0.862076 0.302153,-0.404652 -0.613108,0.571405 -1.277,1.003746 0.5167,-0.450032 -0.716436,0.702254 -0.132192,0.123484 -0.309918,0.192469 -0.438497,0.319707 -0.13813,0.136809 -0.230834,0.313073 -0.353425,0.463963 -0.346341,0.426267 -0.37037,0.427257 -0.757943,0.800718 -0.204928,0.217376 -0.413802,0.431031 -0.616895,0.650128 -0.07483,0.08069 -0.149742,0.161426 -0.219647,0.2464 -0.05259,0.0639 -0.08488,0.253959 -0.147334,0.19971 -4.313511,-3.747002 -5.777639,-3.346282 -3.917608,-3.823758 0.421378,-0.471208 -0.280049,0.330789 0.218842,-0.317631 0.04651,-0.06041 0.113901,-0.101963 0.163615,-0.159746 0.167268,-0.194268 0.293247,-0.425937 0.41312,-0.650491 0.348294,-0.35445 0.619571,-0.77262 0.980763,-1.113634 0.05591,-0.06538 0.121136,-0.123837 0.167701,-0.196177 0.138295,-0.214846 0.09207,-0.282379 0.257431,-0.477917 0.05748,-0.06799 0.13897,-0.111822 0.202087,-0.174605 0.06305,-0.06272 0.116992,-0.133978 0.175493,-0.200974 0.06877,-0.06709 0.137732,-0.13406 0.206597,-0.20109 0.238511,-0.340826 0.101583,-0.185558 0.411113,-0.465501 0.07144,-0.09339 0.100642,-0.213551 0.166313,-0.311083 0.06512,-0.09673 0.154793,-0.174866 0.224067,-0.268677 0.0755,-0.102196 0.139625,-0.212288 0.209438,-0.318436 0.0775,-0.100028 0.155017,-0.200056 0.23253,-0.300088 0.642246,-0.728769 -0.125722,0.186248 0.439693,-0.635763 0.01885,-0.0275 0.470259,-0.534081 0.494106,-0.564045 0.08257,-0.10378 0.15113,-0.21822 0.233318,-0.322322 0.0804,-0.101868 0.169429,-0.196682 0.254136,-0.295027 0.237089,-0.376421 0.157541,-0.280083 0.446885,-0.619426 0.08533,-0.100082 0.187959,-0.18646 0.261294,-0.295634 0.08032,-0.119573 0.115372,-0.265787 0.196057,-0.385124 0.122632,-0.181393 0.461331,-0.501105 0.611631,-0.649939 0.70832,-1.152477 -0.211981,0.293656 0.602085,-0.820979 0.108362,-0.148369 0.182045,-0.320075 0.290191,-0.468606 0.313274,-0.430296 0.746545,-0.772986 0.954116,-1.279204 0.680561,-0.805343 0.0025,0.04362 0.586097,-0.833334 0.340368,-0.511349 0.766605,-0.961012 1.085586,-1.486431 0.08538,-0.101783 0.178697,-0.197405 0.256135,-0.305353 0.425788,-0.593574 -0.005,-0.114689 0.451496,-0.672421 0.13122,-0.160406 0.385404,-0.400972 0.50556,-0.570291 0.07724,-0.108822 0.134153,-0.230723 0.201224,-0.346083 0.163448,-0.201641 0.33752,-0.394861 0.493642,-0.602228 0.289883,-0.38506 0.479055,-0.829974 0.724094,-1.242558 0.05058,-0.0985 0.11121,-0.192478 0.151878,-0.295485 0.07824,-0.198227 0.108046,-0.443211 0.184437,-0.642591 0.07393,-0.192916 0.208492,-0.3661 0.280897,-0.560727 0.06229,-0.311449 0.140174,-0.327309 0.235188,-0.587146 0.08157,-0.222972 0.05996,-0.469379 0.254108,-0.641837 0.02235,-0.0547 0.153356,-0.378071 0.180193,-0.433674 0.02973,-0.06155 0.07625,-0.115036 0.09935,-0.179352 0.07584,-0.210862 0.09259,-0.448109 0.216691,-0.64484 0.04037,-0.216579 0.117489,-0.436504 0.09764,-0.659375 -0.005,-0.05972 -0.08132,-0.217408 -0.0382,-0.175795 4.027091,3.881537 5.509576,4.229935 3.613836,3.744429 -0.07218,0.01133 -0.150789,0.0022 -0.216632,0.034 -0.07982,0.03846 -0.13544,0.114235 -0.204912,0.169185 -0.07633,0.06038 -0.162301,0.10922 -0.232438,0.176693 -0.231475,0.222724 -0.392125,0.520787 -0.694907,0.668376 -0.557715,0.446315 -1.16525,0.819055 -1.777087,1.185052 -0.09531,0.09374 -0.179445,0.200353 -0.285847,0.281276 -0.25773,0.196023 -0.562349,0.322301 -0.83102,0.503036 -0.562697,0.378529 -1.094995,0.804725 -1.648789,1.195766 -0.19556,0.193006 -0.383228,0.394348 -0.586678,0.579021 -0.497387,0.451459 -0.846411,0.674931 -1.35134,1.122745 -0.229332,0.203398 -0.436453,0.430988 -0.66626,0.633851 -2.192883,1.935832 0.698047,-0.730741 -1.373491,1.198497 -0.193774,0.195216 -0.370687,0.408741 -0.581262,0.585709 -0.195236,0.164112 -0.425491,0.281742 -0.630784,0.433088 -0.17344,0.127869 -0.328906,0.279311 -0.504655,0.403991 -0.1476,0.1047 -0.319936,0.172529 -0.463449,0.28277 -0.10246,0.07871 -0.179022,0.186376 -0.268561,0.279534 -0.07418,0.05447 -0.148356,0.108937 -0.222529,0.163406 0,0 -3.857098,-3.868107 -3.857098,-3.868107 z" />
  </g>
</svg>
